<svg width="140" height="20" viewBox="0 0 140 20" fill="none" xmlns="http://www.w3.org/2000/svg">
<g id="Social Media">
<g id="Facebook">
<circle id="Oval" cx="129.929" cy="9.92885" r="9.92885" fill="#9B9B9B"/>
<path id="Shape" d="M132.425 10.3175H130.653V16.8081H127.969V10.3175H126.692V8.03641H127.969V6.5603C127.969 5.50473 128.47 3.85181 130.677 3.85181L132.665 3.86013V6.07428H131.223C130.986 6.07428 130.653 6.19251 130.653 6.69605V8.03853H132.659L132.425 10.3175Z" fill="white"/>
</g>
<g id="Twitter">
<circle id="Oval_2" cx="99.9288" cy="9.92885" r="9.92885" fill="#9B9B9B"/>
<path id="Shape_2" d="M106.568 7.11292C106.142 7.30159 105.685 7.4292 105.205 7.48619C105.695 7.19257 106.071 6.72796 106.248 6.17345C105.79 6.44549 105.282 6.64283 104.741 6.7492C104.308 6.28814 103.692 6 103.008 6C101.698 6 100.635 7.06283 100.635 8.37327C100.635 8.55929 100.656 8.74035 100.697 8.91416C98.7246 8.81522 96.9758 7.87044 95.8051 6.43416C95.6009 6.7846 95.4837 7.19257 95.4837 7.62743C95.4837 8.45062 95.903 9.17735 96.5395 9.60283C96.1506 9.59062 95.7844 9.48389 95.4646 9.30566C95.4644 9.31575 95.4644 9.32584 95.4644 9.33575C95.4644 10.4857 96.2828 11.4448 97.3683 11.6627C97.1694 11.7172 96.9593 11.746 96.7432 11.746C96.5899 11.746 96.4414 11.7313 96.2966 11.7037C96.5986 12.6464 97.4749 13.3326 98.5136 13.3519C97.7012 13.9885 96.6781 14.3678 95.5658 14.3678C95.3747 14.3678 95.1853 14.3566 95 14.3345C96.0497 15.0081 97.2975 15.4009 98.6377 15.4009C103.003 15.4009 105.39 11.7846 105.39 8.64814C105.39 8.54531 105.388 8.44283 105.383 8.34124C105.847 8.00673 106.25 7.58885 106.568 7.11292Z" fill="white"/>
</g>
<g id="Instagram">
<path id="Shape_3" fill-rule="evenodd" clip-rule="evenodd" d="M72.9456 5.30664H67.0007C66.0518 5.30664 65.2798 6.07864 65.2798 7.02753V12.9724C65.2798 13.9213 66.0518 14.6935 67.0007 14.6935H72.9456C73.8945 14.6935 74.6667 13.9215 74.6667 12.9724V7.02753C74.6667 6.07864 73.8947 5.30664 72.9456 5.30664ZM69.9731 13.0902C68.2693 13.0902 66.8831 11.704 66.8831 9.99997C66.8831 8.2962 68.2693 6.90997 69.9731 6.90997C71.6771 6.90997 73.0633 8.2962 73.0633 9.99997C73.0633 11.7038 71.6769 13.0902 69.9731 13.0902ZM72.4313 6.81775C72.4313 7.22086 72.7593 7.54886 73.1627 7.54886C73.5658 7.54886 73.8938 7.22086 73.8938 6.81775C73.8938 6.41464 73.5658 6.08664 73.1627 6.08664C72.7593 6.08664 72.4313 6.41464 72.4313 6.81775Z" fill="#9B9B9B"/>
<path id="Shape_4" d="M69.9732 8.21582C68.9896 8.21582 68.1887 9.01626 68.1887 9.99982C68.1887 10.9838 68.9896 11.7845 69.9732 11.7845C70.9572 11.7845 71.7574 10.9838 71.7574 9.99982C71.7574 9.01649 70.9569 8.21582 69.9732 8.21582Z" fill="#9B9B9B"/>
<path id="Shape_5" fill-rule="evenodd" clip-rule="evenodd" d="M60 9.97311C60 4.46533 64.4653 0 69.9731 0C75.4809 0 79.9462 4.46533 79.9462 9.97311C79.9462 15.4809 75.4809 19.9462 69.9731 19.9462C64.4653 19.9462 60 15.4809 60 9.97311ZM72.9456 15.9991C74.6147 15.9991 75.9722 14.6416 75.9722 12.9724V7.02756C75.9722 5.35867 74.6147 4.00089 72.9456 4.00089H67.0007C65.3318 4.00089 63.974 5.35867 63.974 7.02756V12.9724C63.974 14.6416 65.3318 15.9991 67.0007 15.9991H72.9456Z" fill="#9B9B9B"/>
</g>
<g id="Pinterest">
<circle id="Oval_3" cx="39.929" cy="9.92909" r="9.92885" fill="#9B9B9B"/>
<path id="Shape_6" d="M40.7304 13.296C39.9798 13.238 39.6644 12.8658 39.0757 12.5084C38.7522 14.2059 38.3568 15.8332 37.1856 16.6833C36.8237 14.1176 37.7162 12.1905 38.1307 10.145C37.4242 8.95566 38.2157 6.56168 39.706 7.15159C41.5401 7.8769 38.118 11.5741 40.4153 12.0358C42.8137 12.518 43.7929 7.87425 42.3054 6.3638C40.1564 4.1831 36.05 6.31425 36.555 9.43602C36.678 10.1992 37.4667 10.4309 36.87 11.484C35.4946 11.1794 35.0844 10.0946 35.1371 8.64841C35.2222 6.28115 37.2642 4.62363 39.3123 4.39425C41.9026 4.10434 44.3337 5.3454 44.6693 7.78186C45.0468 10.5318 43.4999 13.5098 40.7304 13.296Z" fill="white"/>
</g>
<g id="Vk">
<circle id="XMLID_11_" cx="9.92885" cy="9.92885" r="9.92885" fill="#9B9B9B"/>
<path id="Shape_7" fill-rule="evenodd" clip-rule="evenodd" d="M9.55384 14.2834H10.3331C10.3331 14.2834 10.5685 14.2576 10.6887 14.128C10.7993 14.0091 10.7958 13.7857 10.7958 13.7857C10.7958 13.7857 10.7806 12.7401 11.2659 12.5861C11.7443 12.4344 12.3586 13.5967 13.0098 14.0436C13.5022 14.3818 13.8763 14.3077 13.8763 14.3077L15.6174 14.2834C15.6174 14.2834 16.5282 14.2273 16.0963 13.5112C16.0609 13.4526 15.8448 12.9815 14.8018 12.0133C13.7101 11.0001 13.8563 11.164 15.1714 9.41121C15.9722 8.34378 16.2924 7.69209 16.1924 7.41298C16.097 7.14714 15.508 7.2174 15.508 7.2174L13.5476 7.22962C13.5476 7.22962 13.4023 7.20979 13.2945 7.27422C13.1892 7.3374 13.1214 7.48466 13.1214 7.48466C13.1214 7.48466 12.8112 8.31068 12.3974 9.01316C11.5245 10.4955 11.1754 10.5737 11.0328 10.4817C10.7009 10.2671 10.7837 9.61988 10.7837 9.16006C10.7837 7.7236 11.0016 7.12466 10.3595 6.96962C10.1464 6.91811 9.98959 6.88413 9.44463 6.87864C8.74517 6.87139 8.15313 6.88077 7.81791 7.04502C7.5949 7.15422 7.42286 7.39758 7.52764 7.41156C7.6572 7.42891 7.95065 7.49068 8.10623 7.70254C8.30711 7.97581 8.30003 8.58962 8.30003 8.58962C8.30003 8.58962 8.41543 10.2806 8.03048 10.4907C7.76623 10.6347 7.40375 10.3406 6.62552 8.99581C6.22676 8.30696 5.9257 7.54555 5.9257 7.54555C5.9257 7.54555 5.86764 7.40325 5.7641 7.32714C5.63844 7.23493 5.46286 7.20555 5.46286 7.20555L3.60003 7.21776C3.60003 7.21776 3.32039 7.22555 3.21773 7.34714C3.1264 7.45528 3.21047 7.679 3.21047 7.679C3.21047 7.679 4.66888 11.091 6.32021 12.8105C7.83437 14.387 9.55384 14.2834 9.55384 14.2834Z" fill="white"/>
</g>
</g>
</svg>
